# xmcd
#
# Track frame offsets:
#	150
#	15492
#	28160
#	45865
#	63315
#	82307
#	100580
#	110990
#	130305
#	147510
#
# Disc length: 2208 seconds
#
# Revision: 1
# Processed by: cddbd v1.5.1PL0 Copyright (c) Steve Scherf et al.
# Submitted via: EasyCDDAExtractor 6.5.7.1
#
DISCID=88089e0a
DTITLE=Elton Saldanha - Aldebarã
DYEAR=1996
DGENRE=Gaúcha
TTITLE0=Baile de Pegá Cria
TTITLE1=Cri Cri
TTITLE2=Esse Veinho
TTITLE3=Itaqui
TTITLE4=Deixada Só
TTITLE5=Rancho da ilusão
TTITLE6=Paraguaita
TTITLE7=Aldebarã
TTITLE8=Aventuras de um Galope
TTITLE9=Neguinho Dado
EXTD=
EXTT0=
EXTT1=
EXTT2=
EXTT3=
EXTT4=
EXTT5=
EXTT6=
EXTT7=
EXTT8=
EXTT9=
PLAYORDER=
